HIERARCHY
ROOT joint_0
{
	OFFSET 0.000000 0.000000 0.000000
	CHANNELS 6 Xposition Yposition Zposition Zrotation Yrotation Xrotation 
	JOINT joint_1
	{
		OFFSET 17.107422 0.519409 105.452026
		CHANNELS 3 Zrotation Yrotation Xrotation
		JOINT joint_2
		{
			OFFSET 6.110352 -1.434082 97.381958
			CHANNELS 3 Zrotation Yrotation Xrotation
			JOINT joint_3
			{
				OFFSET 6.305908 -1.739990 97.255005
				CHANNELS 3 Zrotation Yrotation Xrotation
				JOINT joint_4
				{
					OFFSET 22.074707 -0.492493 131.077026
					CHANNELS 3 Zrotation Yrotation Xrotation
					JOINT joint_5
					{
						OFFSET 34.162842 2.248718 78.700928
						CHANNELS 3 Zrotation Yrotation Xrotation
						End Site
						{
							OFFSET 0.000000 0.000000 0.000000
						}
					}
				}
				JOINT joint_6
				{
					OFFSET 17.059082 -28.836914 72.664062
					CHANNELS 3 Zrotation Yrotation Xrotation
					JOINT joint_7
					{
						OFFSET 22.639893 -134.803833 -24.691040
						CHANNELS 3 Zrotation Yrotation Xrotation
						JOINT joint_8
						{
							OFFSET 7.301758 -32.590759 -269.966064
							CHANNELS 3 Zrotation Yrotation Xrotation
							JOINT joint_9
							{
								OFFSET 35.581055 -8.517151 -242.326965
								CHANNELS 3 Zrotation Yrotation Xrotation
								End Site
								{
									OFFSET 0.000000 0.000000 0.000000
								}
							}
						}
					}
				}
				JOINT joint_10
				{
					OFFSET 7.819092 28.232056 74.432983
					CHANNELS 3 Zrotation Yrotation Xrotation
					JOINT joint_11
					{
						OFFSET -23.457031 135.063843 -22.406982
						CHANNELS 3 Zrotation Yrotation Xrotation
						JOINT joint_12
						{
							OFFSET 17.896973 48.138672 -267.131958
							CHANNELS 3 Zrotation Yrotation Xrotation
							JOINT joint_13
							{
								OFFSET 46.526367 17.567627 -239.975037
								CHANNELS 3 Zrotation Yrotation Xrotation
								End Site
								{
									OFFSET 0.000000 0.000000 0.000000
								}
							}
						}
					}
				}
			}
		}
	}
	JOINT joint_14
	{
		OFFSET 10.553467 -100.140320 -126.306030
		CHANNELS 3 Zrotation Yrotation Xrotation
		JOINT joint_15
		{
			OFFSET -52.094238 -9.565002 -436.052002
			CHANNELS 3 Zrotation Yrotation Xrotation
			JOINT joint_16
			{
				OFFSET -55.682617 -11.310120 -462.482971
				CHANNELS 3 Zrotation Yrotation Xrotation
				JOINT joint_17
				{
					OFFSET 179.119385 -5.942566 -84.087004
					CHANNELS 3 Zrotation Yrotation Xrotation
					End Site
					{
						OFFSET 0.000000 0.000000 0.000000
					}
				}
			}
		}
	}
	JOINT joint_18
	{
		OFFSET -22.235352 101.620483 -123.583984
		CHANNELS 3 Zrotation Yrotation Xrotation
		JOINT joint_19
		{
			OFFSET -38.118408 12.306396 -437.429016
			CHANNELS 3 Zrotation Yrotation Xrotation
			JOINT joint_20
			{
				OFFSET -51.789307 8.010498 -463.006004
				CHANNELS 3 Zrotation Yrotation Xrotation
				JOINT joint_21
				{
					OFFSET 170.088135 59.632324 -83.078003
					CHANNELS 3 Zrotation Yrotation Xrotation
					End Site
					{
						OFFSET 0.000000 0.000000 0.000000
					}
				}
			}
		}
	}
}
MOTION
Frames: 15
Frame Time: 0.016667
-3276.492432 886.442993 1126.947998 -6.691781 -3.289903 0.126602 -0.333623 1.057260 -0.336293 -0.374054 -0.233376 0.025245 -0.357343 0.270399 -0.099880 0.113833 -4.477374 0.102751 0.000000 0.000000 0.000000 -2.288238 2.494602 0.006087 0.057815 1.874775 -0.873466 2.767114 -19.493047 7.745920 0.000000 0.000000 0.000000 -0.327043 0.877415 0.019541 0.593125 0.773658 -1.423973 0.079229 -3.263269 1.641289 0.000000 0.000000 0.000000 2.096473 -1.737459 -1.190220 1.919633 1.289384 -0.343413 1.729266 3.013287 0.906973 0.000000 0.000000 0.000000 2.267662 0.399091 -0.170703 2.229210 -0.263549 0.066262 2.256634 2.394870 0.257169 0.000000 0.000000 0.000000 
-3274.513916 887.402466 1126.885010 -6.478893 -3.174917 0.144372 -0.406750 1.224932 -0.217301 -0.439244 -0.284663 -0.034687 -0.426861 0.315159 -0.074370 0.129648 -4.626283 0.046922 0.000000 0.000000 0.000000 -2.227592 3.623044 -0.534344 0.058996 2.994489 -1.182189 3.733556 -27.144701 9.892462 0.000000 0.000000 0.000000 -0.254524 1.012849 -0.015662 0.621681 0.900927 -1.464872 0.023993 -3.555505 1.471890 0.000000 0.000000 0.000000 2.072331 -1.603582 -1.334354 1.879824 1.091835 -0.294414 1.697096 2.845389 0.886634 0.000000 0.000000 0.000000 2.233008 0.208082 -0.256736 2.199042 0.060475 0.087378 2.207447 2.080540 0.343757 0.000000 0.000000 0.000000 
-3272.298584 888.599243 1126.798950 -6.202800 -3.080169 0.172132 -0.536459 1.403437 -0.024386 -0.554695 -0.344588 -0.125779 -0.549477 0.370078 -0.037370 0.163574 -4.753526 -0.069123 0.000000 0.000000 0.000000 -2.134420 4.813809 -0.912749 -0.012116 4.036707 -1.907022 4.648828 -36.020593 12.125942 0.000000 0.000000 0.000000 -0.117700 1.165203 -0.152063 0.652317 1.071329 -1.396632 -0.046764 -3.837114 1.224981 0.000000 0.000000 0.000000 2.029264 -1.412092 -1.504225 1.820836 0.879093 -0.255692 1.646507 2.626528 0.855989 0.000000 0.000000 0.000000 2.173990 0.004375 -0.371171 2.144475 0.478930 0.113069 2.127805 1.654106 0.454795 0.000000 0.000000 0.000000 
-3269.476074 890.026306 1126.692017 -5.945852 -2.952000 0.187002 -0.668866 1.577276 0.164103 -0.673554 -0.397725 -0.210323 -0.675493 0.415099 -0.005030 0.188386 -4.881107 -0.178099 0.000000 0.000000 0.000000 -2.049567 5.938535 -1.314461 -0.208048 4.924175 -2.800325 5.319912 -45.158011 14.219831 0.000000 0.000000 0.000000 -0.015232 1.363791 -0.261611 0.687621 1.281755 -1.373533 -0.107977 -4.087285 1.020495 0.000000 0.000000 0.000000 1.995395 -1.235649 -1.669608 1.771768 0.689546 -0.227140 1.605618 2.371667 0.828676 0.000000 0.000000 0.000000 2.114141 -0.231794 -0.488291 2.091819 0.963436 0.133421 2.044270 1.156639 0.588834 0.000000 0.000000 0.000000 
-3265.843018 891.708191 1126.582031 -5.756899 -2.757839 0.171051 -0.774125 1.735392 0.296882 -0.770085 -0.428963 -0.267652 -0.777745 0.434748 0.015147 0.181325 -5.018144 -0.226941 0.000000 0.000000 0.000000 -1.971946 6.992396 -1.967382 -0.565785 5.692517 -3.716370 5.693989 -54.438676 16.124302 0.000000 0.000000 0.000000 -0.017522 1.638240 -0.252246 0.733010 1.538231 -1.508231 -0.143397 -4.314106 0.945706 0.000000 0.000000 0.000000 1.990191 -1.121615 -1.807060 1.753678 0.549702 -0.212872 1.594214 2.093466 0.814373 0.000000 0.000000 0.000000 2.065824 -0.524303 -0.591005 2.055875 1.513298 0.143482 1.971981 0.619735 0.742163 0.000000 0.000000 0.000000 
-3261.546631 893.648621 1126.468994 -5.604014 -2.518300 0.132294 -0.873235 1.886627 0.407139 -0.862356 -0.445146 -0.312874 -0.875589 0.433091 0.029293 0.155427 -5.151156 -0.252019 0.000000 0.000000 0.000000 -1.907871 8.008224 -2.738420 -1.121136 6.280610 -4.803567 5.782482 -64.219128 17.872322 0.000000 0.000000 0.000000 -0.086330 1.976935 -0.183497 0.787377 1.843780 -1.734633 -0.162825 -4.524368 0.955057 0.000000 0.000000 0.000000 2.002409 -1.042212 -1.927627 1.754910 0.444589 -0.212072 1.601084 1.789086 0.807736 0.000000 0.000000 0.000000 2.020007 -0.866125 -0.688179 2.026541 2.139374 0.146919 1.900950 0.033797 0.913236 0.000000 0.000000 0.000000 
-3256.360596 895.717590 1126.272949 -5.516044 -2.216492 0.081466 -0.943305 2.020296 0.487250 -0.928892 -0.456540 -0.332798 -0.945935 0.430676 0.030069 0.113291 -5.331086 -0.251744 0.000000 0.000000 0.000000 -1.925078 8.810136 -3.413614 -1.824191 6.524783 -5.930918 5.646333 -73.409827 19.408305 0.000000 0.000000 0.000000 -0.177145 2.324132 -0.113820 0.830079 2.153886 -1.982698 -0.165943 -4.603381 1.006027 0.000000 0.000000 0.000000 2.030907 -1.006608 -2.046482 1.770503 0.372589 -0.209413 1.623435 1.451684 0.807254 0.000000 0.000000 0.000000 1.990895 -1.209767 -0.776276 2.015888 2.758710 0.132412 1.842282 -0.613030 1.111645 0.000000 0.000000 0.000000 
-3250.160156 897.825684 1125.941040 -5.527480 -1.838790 0.026983 -0.963400 2.131187 0.530424 -0.949620 -0.469211 -0.322731 -0.968554 0.434862 0.017894 0.051382 -5.589552 -0.214932 0.000000 0.000000 0.000000 -2.072474 9.255916 -3.960831 -2.621793 6.406603 -6.924899 5.427547 -81.517412 20.817157 0.000000 0.000000 0.000000 -0.265193 2.642983 -0.080093 0.846096 2.437319 -2.214438 -0.146133 -4.443764 1.087670 0.000000 0.000000 0.000000 2.078941 -1.022553 -2.176420 1.800945 0.321401 -0.194096 1.662312 1.095176 0.813875 0.000000 0.000000 0.000000 1.991045 -1.538561 -0.851749 2.036968 3.342438 0.085088 1.805511 -1.353070 1.353384 0.000000 0.000000 0.000000 
-3243.037598 900.024048 1125.501953 -5.628594 -1.393196 -0.036557 -0.943077 2.225781 0.538533 -0.933762 -0.480481 -0.286937 -0.953691 0.436436 -0.006505 -0.035303 -5.905549 -0.138905 0.000000 0.000000 0.000000 -2.314679 9.360286 -4.472002 -3.586454 6.019869 -7.825753 5.148928 -89.141834 22.126248 0.000000 0.000000 0.000000 -0.363429 2.954293 -0.068957 0.843964 2.710075 -2.446314 -0.101910 -4.084972 1.215001 0.000000 0.000000 0.000000 2.147083 -1.086056 -2.312565 1.848094 0.290949 -0.171260 1.718655 0.728754 0.828310 0.000000 0.000000 0.000000 2.014782 -1.869429 -0.915928 2.084867 3.921536 0.009075 1.786241 -2.176064 1.632677 0.000000 0.000000 0.000000 
-3234.844971 902.324829 1124.964966 -5.747937 -0.884529 -0.115525 -0.897196 2.292380 0.509593 -0.894555 -0.480709 -0.251844 -0.917687 0.435864 -0.024203 -0.151722 -6.270338 -0.005562 0.000000 0.000000 0.000000 -2.532905 9.230850 -4.852067 -4.710873 5.501966 -8.707362 -175.239649 -83.987659 -156.785111 0.000000 0.000000 0.000000 -0.500706 3.261029 -0.093075 0.835828 2.988401 -2.640039 -0.052728 -3.651850 1.324706 0.000000 0.000000 0.000000 2.219275 -1.197502 -2.449098 1.895630 0.333957 -0.139948 1.780176 0.285115 0.842575 0.000000 0.000000 0.000000 2.045878 -2.143303 -0.974845 2.136309 4.376945 -0.068687 1.774865 -2.954900 1.900331 0.000000 0.000000 0.000000 
-3225.313232 904.860901 1124.293945 -5.877565 -0.307198 -0.224720 -0.853354 2.269514 0.474831 -0.853904 -0.440260 -0.253430 -0.885467 0.405208 -0.016750 -0.300910 -6.687828 0.207109 0.000000 0.000000 0.000000 -2.515497 9.055662 -5.060635 -5.959493 5.000132 -9.734479 -175.843347 -77.945880 -155.880594 0.000000 0.000000 0.000000 -0.661939 3.606373 -0.190582 0.830585 3.330030 -2.760255 -0.020847 -3.225137 1.331870 0.000000 0.000000 0.000000 2.299628 -1.334675 -2.581591 1.949073 0.434035 -0.097836 1.852961 -0.270191 0.858346 0.000000 0.000000 0.000000 2.079356 -2.304100 -1.031208 2.180653 4.617284 -0.123843 1.768606 -3.643974 2.139012 0.000000 0.000000 0.000000 
-3214.496094 907.628174 1123.485962 -6.048021 0.340554 -0.364100 -0.806294 2.158756 0.432737 -0.807083 -0.359425 -0.277848 -0.850031 0.340543 0.008287 -0.479217 -7.158072 0.491814 0.000000 0.000000 0.000000 -2.304988 8.820201 -5.109569 -7.301682 4.509056 -10.941998 -176.678240 -72.440552 -155.088938 0.000000 0.000000 0.000000 -0.840025 3.987301 -0.373626 0.823176 3.733032 -2.806514 0.001681 -2.753889 1.258621 0.000000 0.000000 0.000000 2.395209 -1.497834 -2.711549 2.015981 0.569221 -0.046421 1.942481 -0.896899 0.879426 0.000000 0.000000 0.000000 2.121941 -2.374359 -1.082745 2.227370 4.686811 -0.166544 1.772491 -4.281249 2.364343 0.000000 0.000000 0.000000 
-3203.166748 910.065613 1122.722046 -6.084126 1.018040 -0.479873 -0.683655 2.223023 0.247507 -0.702750 -0.354801 -0.247120 -0.754099 0.359487 0.007383 -0.678160 -7.647740 0.809494 0.000000 0.000000 0.000000 -2.442632 8.370423 -4.969976 -8.499534 4.005597 -11.860999 -177.410621 -67.969038 -154.781050 0.000000 0.000000 0.000000 -1.168133 4.223518 -0.483545 0.803524 3.982723 -2.830530 0.055341 -2.232803 1.303769 0.000000 0.000000 0.000000 2.436946 -1.786920 -2.843028 2.019984 0.973373 0.014024 1.982364 -1.611752 0.874112 0.000000 0.000000 0.000000 2.148164 -2.421692 -1.139660 2.255192 4.633067 -0.218475 1.773561 -4.692411 2.508794 0.000000 0.000000 0.000000 
-3191.971436 911.731873 1122.121948 -5.900236 1.735665 -0.531331 -0.389470 2.787766 -0.281010 -0.477488 -0.566424 -0.059918 -0.532756 0.591834 -0.076370 -0.920684 -8.205373 1.171279 0.000000 0.000000 0.000000 -3.448978 7.439335 -4.560666 -9.306812 3.479271 -12.123564 -177.680826 -65.085794 -155.190886 0.000000 0.000000 0.000000 -1.761354 4.191686 -0.293239 0.763849 3.876582 -2.936310 0.168363 -1.703953 1.620589 0.000000 0.000000 0.000000 2.388055 -2.309047 -2.975946 1.920832 1.781346 0.080636 1.936960 -2.411699 0.825761 0.000000 0.000000 0.000000 2.165872 -2.506919 -1.216598 2.271866 4.412129 -0.281775 1.791109 -4.678736 2.512175 0.000000 0.000000 0.000000 
-3180.618164 912.843506 1121.614990 -5.564128 2.501463 -0.531410 0.039988 3.791023 -1.087692 -0.163722 -0.934144 0.253401 -0.221549 0.934385 -0.233329 -1.212140 -8.835435 1.585744 0.000000 0.000000 0.000000 -5.120268 6.139553 -3.915745 -9.721796 3.025931 -11.893931 -177.581486 -63.525875 -156.064375 0.000000 0.000000 0.000000 -2.532627 3.982074 0.176672 0.711504 3.497420 -3.137762 0.326713 -1.174809 2.138929 0.000000 0.000000 0.000000 2.276206 -3.014279 -3.115097 1.749845 2.896382 0.156439 1.832760 -3.268343 0.747649 0.000000 0.000000 0.000000 2.186770 -2.592925 -1.312181 2.287498 4.001068 -0.350613 1.831165 -4.301904 2.399037 0.000000 0.000000 0.000000 
